<svg width="512" height="512" viewBox="0 0 512 512" fill="none" xmlns="http://www.w3.org/2000/svg">
<circle cx="256" cy="256" r="177" stroke="#FF3F3F" stroke-width="30"/>
<path d="M268.375 162.818L266.557 296.636H245.466L243.648 162.818H268.375ZM256.011 350.455C251.527 350.455 247.678 348.848 244.466 345.636C241.254 342.424 239.648 338.576 239.648 334.091C239.648 329.606 241.254 325.758 244.466 322.545C247.678 319.333 251.527 317.727 256.011 317.727C260.496 317.727 264.345 319.333 267.557 322.545C270.769 325.758 272.375 329.606 272.375 334.091C272.375 337.061 271.617 339.788 270.102 342.273C268.648 344.758 266.678 346.758 264.193 348.273C261.769 349.727 259.042 350.455 256.011 350.455Z" fill="#FF3F3F"/>
</svg>
