<svg width="512" height="512" viewBox="0 0 512 512" fill="none" xmlns="http://www.w3.org/2000/svg">
<circle cx="120" cy="446" r="46" fill="white"/>
<circle cx="405" cy="446" r="46" fill="white"/>
<path d="M392 378.486H133C126.373 378.486 121 373.114 121 366.486V294.703M121 294.703H359.432C363.524 294.703 367.334 292.617 369.54 289.17L478.685 118.575C483.795 110.588 478.059 100.108 468.577 100.108H65M121 294.703L65 100.108M65 100.108V74.5C65 67.8726 59.6274 62.5 53 62.5H18" stroke="white" stroke-width="20" stroke-linecap="round"/>
<path d="M102.5 100.108V217.838C102.5 224.465 107.873 229.838 114.5 229.838H383C389.627 229.838 395 224.465 395 217.838V112.108C395 105.481 389.627 100.108 383 100.108H323M175.5 293.351V112.108C175.5 105.481 180.873 100.108 187.5 100.108H217H247M247 293.351V100.108M247 100.108H309H323M323 293.351V100.108M82 163.622H450.5" stroke="white" stroke-width="20"/>
</svg>
