<svg width="1524" height="512" viewBox="0 0 1524 512" fill="none" xmlns="http://www.w3.org/2000/svg">
<rect width="1524" height="512" fill="transparent"/>
<path d="M807.34 40.8116L787.06 92.8491C785.69 96.3641 786.42 100.352 788.94 103.159L821.12 139.018M807.34 40.8116L855.99 39.0069C858.65 38.9081 861.25 39.8765 863.19 41.6971L901.44 77.4799M807.34 40.8116L833.13 69.6429M821.12 139.018L872.58 135.664C876.46 135.411 879.84 132.936 881.25 129.315L901.44 77.4799M821.12 139.018L841.32 87.1821C842.73 83.5619 846.11 81.0865 849.99 80.8338L901.44 77.4799" stroke="white" stroke-width="10" stroke-linecap="round" stroke-linejoin="round"/>
<path d="M880 88.4429L856.39 90.2689C852.56 90.5651 849.24 93.0291 847.84 96.6091L844.5 105.196" stroke="white" stroke-width="5" stroke-linecap="round" stroke-linejoin="round"/>
<path d="M1258.3 162.911V218.759C1258.3 222.532 1260.42 225.984 1263.79 227.685L1306.8 249.411M1258.3 162.911L1302.98 143.566C1305.43 142.507 1308.19 142.468 1310.67 143.457L1359.3 162.911M1258.3 162.911L1292.8 180.411M1306.8 249.411L1353.53 227.604C1357.05 225.961 1359.3 222.428 1359.3 218.542V162.911M1306.8 249.411V193.78C1306.8 189.894 1309.05 186.361 1312.57 184.718L1359.3 162.911" stroke="white" stroke-width="10" stroke-linecap="round" stroke-linejoin="round"/>
<path d="M1343.3 180.911L1321.96 191.185C1318.5 192.851 1316.3 196.353 1316.3 200.195V209.411" stroke="white" stroke-width="5" stroke-linecap="round" stroke-linejoin="round"/>
<path d="M1352.61 248.412L1324.61 296.729C1322.71 299.993 1322.82 304.045 1324.88 307.205L1351.19 347.571M1352.61 248.412L1400.97 254.083C1403.62 254.393 1406.03 255.747 1407.67 257.845L1439.99 299.065M1352.61 248.412L1373.69 280.855M1351.19 347.571L1402.56 352.14C1406.43 352.485 1410.15 350.556 1412.09 347.195L1439.99 299.065M1351.19 347.571L1379.09 299.442C1381.04 296.081 1384.76 294.152 1388.63 294.496L1439.99 299.065" stroke="white" stroke-width="10" stroke-linecap="round" stroke-linejoin="round"/>
<path d="M1417.12 306.614L1393.51 304.801C1389.68 304.507 1386.02 306.433 1384.09 309.756L1379.47 317.73" stroke="white" stroke-width="5" stroke-linecap="round" stroke-linejoin="round"/>
<path d="M1187.54 287.608L1204.94 340.676C1206.12 344.261 1209.21 346.88 1212.94 347.447L1260.58 354.692M1187.54 287.608L1223.97 255.305C1225.96 253.537 1228.58 252.638 1231.24 252.808L1283.52 256.141M1187.54 287.608L1225.78 293.488M1260.58 354.692L1298.19 319.412C1301.02 316.754 1302.06 312.695 1300.85 309.004L1283.52 256.141M1260.58 354.692L1243.25 301.83C1242.04 298.138 1243.07 294.079 1245.91 291.421L1283.52 256.141" stroke="white" stroke-width="10" stroke-linecap="round" stroke-linejoin="round"/>
<path d="M1273.92 278.23L1256.84 294.64C1254.08 297.302 1253.08 301.316 1254.27 304.966L1257.14 313.723" stroke="white" stroke-width="5" stroke-linecap="round" stroke-linejoin="round"/>
<path d="M263.636 362.2L283.944 414.225C285.316 417.739 288.549 420.183 292.305 420.543L340.27 425.143M263.636 362.2L298.222 327.932C300.115 326.057 302.679 325.014 305.344 325.036L357.722 325.474M263.636 362.2L302.138 365.957M340.27 425.143L375.87 387.837C378.553 385.026 379.364 380.916 377.951 377.297L357.722 325.474M340.27 425.143L320.041 373.319C318.628 369.7 319.439 365.59 322.122 362.779L357.722 325.474" stroke="white" stroke-width="10" stroke-linecap="round" stroke-linejoin="round"/>
<path d="M349.363 348.059L333.221 365.389C330.603 368.2 329.826 372.263 331.223 375.841L334.574 384.426" stroke="white" stroke-width="5" stroke-linecap="round" stroke-linejoin="round"/>
<path d="M426.14 363.613L407.435 398.639C405.658 401.967 405.905 406.012 408.074 409.099L427.644 436.95M426.14 363.613L460.952 366.47C463.608 366.688 466.067 367.957 467.784 369.996L492.039 398.805M426.14 363.613L442.552 387.052M427.644 436.95L464.076 438.915C467.956 439.124 471.605 437.068 473.436 433.64L492.039 398.805M427.644 436.95L446.248 402.115C448.078 398.688 451.728 396.631 455.607 396.841L492.039 398.805" stroke="white" stroke-width="10" stroke-linecap="round" stroke-linejoin="round"/>
<path d="M475.547 407.319L459.679 406.656C455.841 406.495 452.25 408.548 450.441 411.936L448 416.506" stroke="white" stroke-width="5" stroke-linecap="round" stroke-linejoin="round"/>
<path d="M1072.27 385.209C1071.55 385.209 1070.76 385.101 1069.9 384.886C1069.11 384.671 1068.36 384.492 1067.64 384.349L1048.51 379.619L1026.58 372.309C1024.43 371.592 1023.35 369.514 1023.35 366.074V294.586C1023.35 292.866 1023.96 291.433 1025.18 290.286L1046.68 268.786C1047.9 267.568 1049.33 266.959 1050.98 266.959H1085.38C1087.03 266.959 1088.46 267.568 1089.68 268.786L1111.18 290.286C1112.4 291.433 1113.01 292.866 1113.01 294.586V338.661H1055.28L1054.53 352.959L1069.79 358.011L1097.21 359.946C1098.42 360.161 1099.03 360.985 1099.03 362.419V382.521C1099.03 384.313 1098.14 385.209 1096.35 385.209H1072.27ZM1067.97 321.784H1070.01C1073.52 321.784 1076.31 320.458 1078.39 317.806C1080.54 315.154 1081.62 311.571 1081.62 307.056V304.906C1081.62 300.463 1080.54 296.915 1078.39 294.264C1076.31 291.612 1073.52 290.286 1070.01 290.286H1067.86C1064.42 290.286 1061.66 291.612 1059.58 294.264C1057.57 296.915 1056.57 300.463 1056.57 304.906V307.056C1056.57 311.571 1057.57 315.154 1059.58 317.806C1061.66 320.458 1064.45 321.784 1067.97 321.784Z" fill="white"/>
<path d="M942.55 421.006C940.76 421.006 939.86 420.11 939.86 418.319V401.549C939.86 400.115 940.4 399.327 941.48 399.184L957.17 395.206L968.35 389.294C969.43 388.72 969.96 387.609 969.96 385.961V368.331L959.86 377.684C958.64 378.902 957.21 379.511 955.56 379.511L937.28 380.156C935.64 380.156 934.2 379.583 932.98 378.436L913.31 358.656C912.09 357.509 911.48 356.076 911.48 354.356V294.586C911.48 292.866 912.09 291.433 913.31 290.286L934.81 268.786C936.03 267.568 937.46 266.959 939.11 266.959H996.62C998.42 266.959 999.31 267.854 999.31 269.646V398.861C999.31 400.796 998.7 402.229 997.48 403.161L983.19 412.299L965.13 419.824C964.05 420.254 963.23 420.54 962.65 420.684C962.15 420.899 961.29 421.006 960.07 421.006H942.55ZM951.69 356.936H959.21C961.51 356.936 963.08 356.47 963.94 355.539C964.8 354.607 965.23 352.959 965.23 350.594V292.006H951.69C949.32 292.006 947.71 292.472 946.85 293.404C945.99 294.335 945.56 295.984 945.56 298.349V350.594C945.56 352.959 945.99 354.607 946.85 355.539C947.71 356.47 949.32 356.936 951.69 356.936Z" fill="white"/>
<path d="M827.24 385.209C825.59 385.209 824.16 384.599 822.94 383.381L801.44 361.881C800.22 360.734 799.61 359.301 799.61 357.581V294.586C799.61 292.866 800.22 291.433 801.44 290.286L822.94 268.786C824.16 267.568 825.59 266.959 827.24 266.959H843.69C845.41 266.959 846.84 267.568 847.99 268.786L853.36 274.161V244.599C853.36 242.807 854.26 241.911 856.05 241.911H884.75C886.55 241.911 887.44 242.807 887.44 244.599V382.521C887.44 384.313 886.55 385.209 884.75 385.209H862.39C861.46 385.209 860.75 385.029 860.24 384.671C859.81 384.313 859.31 383.883 858.74 383.381L853.36 378.006L847.99 383.381C846.84 384.599 845.41 385.209 843.69 385.209H827.24ZM839.82 360.161H847.34C849.64 360.161 851.21 359.695 852.07 358.764C852.93 357.832 853.36 356.184 853.36 353.819V292.006H839.82C837.45 292.006 835.84 292.472 834.98 293.404C834.12 294.335 833.69 295.984 833.69 298.349V353.819C833.69 356.184 834.12 357.832 834.98 358.764C835.84 359.695 837.45 360.161 839.82 360.161Z" fill="white"/>
<path d="M744.31 385.209C742.51 385.209 741.62 384.313 741.62 382.521V269.646C741.62 267.854 742.51 266.959 744.31 266.959H772.9C774.69 266.959 775.59 267.854 775.59 269.646V382.521C775.59 384.313 774.69 385.209 772.9 385.209H744.31ZM743.77 258.036C742.33 258.036 741.62 257.319 741.62 255.886V242.234C741.62 240.8 742.33 240.084 743.77 240.084H773.65C774.94 240.084 775.59 240.8 775.59 242.234V255.886C775.59 257.319 774.94 258.036 773.65 258.036H743.77Z" fill="white"/>
<path d="M669.6 385.209C667.81 385.209 666.91 384.313 666.91 382.521V269.646C666.91 267.854 667.81 266.959 669.6 266.959H685.94C687.3 266.959 688.48 267.568 689.49 268.786L700.02 280.934L711.74 268.249C712.53 267.389 713.53 266.959 714.75 266.959H726.36C728.15 266.959 729.05 267.854 729.05 269.646V292.759C729.05 293.905 728.98 294.694 728.83 295.124C728.69 295.482 728.29 295.876 727.65 296.306L700.99 315.979V382.521C700.99 384.313 700.09 385.209 698.3 385.209H669.6Z" fill="white"/>
<path d="M573.688 385.209C571.896 385.209 571 384.313 571 382.521V244.599C571 242.807 571.896 241.911 573.688 241.911H647.32C649.12 241.911 650.01 242.807 650.01 244.599V267.819C650.01 269.61 649.12 270.506 647.32 270.506H606.797V306.411H641.95C643.74 306.411 644.64 307.307 644.64 309.099V332.319C644.64 334.11 643.74 335.006 641.95 335.006H606.797V382.521C606.797 384.313 605.902 385.209 604.11 385.209H573.688Z" fill="white"/>
<path d="M470.702 240.209C468.91 240.209 468.015 239.313 468.015 237.521V99.5991C468.015 97.8071 468.91 96.9111 470.702 96.9111H501.125C502.916 96.9111 503.812 97.8071 503.812 99.5991V156.574H517.142L524.237 129.806L530.687 98.3091C530.831 97.8791 531.153 97.5561 531.655 97.3411C532.228 97.0541 533.052 96.9111 534.127 96.9111H565.087C566.879 96.9111 567.775 97.8071 567.775 99.5991V113.036C567.775 113.824 567.667 114.613 567.452 115.401C567.237 116.118 567.058 116.763 566.915 117.336L553.8 148.834L544.662 166.034L554.015 183.019L569.817 218.924C570.104 219.425 570.319 219.963 570.462 220.536C570.606 221.109 570.677 221.934 570.677 223.009V237.521C570.677 239.313 569.781 240.209 567.99 240.209H535.955C535.453 240.209 534.808 240.137 534.02 239.994C533.303 239.779 532.873 239.313 532.73 238.596L524.775 204.519L518.862 185.061H503.812V237.521C503.812 239.313 502.916 240.209 501.125 240.209H470.702Z" fill="white"/>
<path d="M409.434 240.209C407.642 240.209 406.746 239.313 406.746 237.521V99.5991C406.746 97.8071 407.642 96.9111 409.434 96.9111H439.856C441.648 96.9111 442.544 97.8071 442.544 99.5991V237.521C442.544 239.313 441.648 240.209 439.856 240.209H409.434Z" fill="white"/>
<path d="M288.444 240.209C286.652 240.209 285.756 239.313 285.756 237.521V99.5991C285.756 97.8071 286.652 96.9111 288.444 96.9111H353.159C354.807 96.9111 356.241 97.4841 357.459 98.6311L378.959 120.131C380.106 121.349 380.679 122.783 380.679 124.431V147.006C380.679 147.723 380.535 148.296 380.249 148.726C379.962 149.156 379.532 149.658 378.959 150.231L362.081 165.281L360.469 169.259L362.081 172.161L378.959 187.211C379.532 187.784 379.962 188.286 380.249 188.716C380.535 189.074 380.679 189.648 380.679 190.436V212.581C380.679 214.301 380.106 215.734 378.959 216.881L357.459 238.381C356.241 239.599 354.807 240.209 353.159 240.209H288.444ZM331.229 216.021C337.177 216.021 341.226 214.839 343.376 212.474C345.598 210.109 346.709 205.629 346.709 199.036C346.709 192.371 345.598 187.856 343.376 185.491C341.226 183.126 337.177 181.944 331.229 181.944C325.352 181.944 321.303 183.126 319.081 185.491C316.931 187.856 315.856 192.371 315.856 199.036C315.856 205.629 316.931 210.109 319.081 212.474C321.303 214.839 325.352 216.021 331.229 216.021ZM331.229 155.069C337.177 155.069 341.226 153.886 343.376 151.521C345.598 149.156 346.709 144.677 346.709 138.084C346.709 131.49 345.598 127.011 343.376 124.646C341.226 122.281 337.177 121.099 331.229 121.099C325.352 121.099 321.303 122.281 319.081 124.646C316.931 127.011 315.856 131.49 315.856 138.084C315.856 144.677 316.931 149.156 319.081 151.521C321.303 153.886 325.352 155.069 331.229 155.069Z" fill="white"/>
<path d="M195.938 240.209C194.218 240.209 192.785 239.599 191.638 238.381L170.138 216.881C168.92 215.734 168.311 214.301 168.311 212.581V99.5991C168.311 97.8071 169.206 96.9111 170.998 96.9111H201.421C203.212 96.9111 204.108 97.8071 204.108 99.5991V209.356C204.108 210.789 204.825 211.506 206.258 211.506H223.888V99.5991C223.888 97.8071 224.784 96.9111 226.576 96.9111H256.998C258.79 96.9111 259.686 97.8071 259.686 99.5991V237.521C259.686 239.313 258.79 240.209 256.998 240.209H195.938Z" fill="white"/>
<path d="M88.188 240.209C86.396 240.209 85.5 239.313 85.5 237.521V125.506H66.688C64.896 125.506 64 124.61 64 122.819V99.5991C64 97.8071 64.896 96.9111 66.688 96.9111H140.11C141.902 96.9111 142.798 97.8071 142.798 99.5991V122.819C142.798 124.61 141.902 125.506 140.11 125.506H121.298V237.521C121.298 239.313 120.402 240.209 118.61 240.209H88.188Z" fill="white"/>
</svg>
