<svg width="512" height="512" viewBox="0 0 512 512" fill="none" xmlns="http://www.w3.org/2000/svg">
<path d="M456 167.467V474C456 480.627 450.627 486 444 486H355.75H317.625C310.998 486 305.625 480.627 305.625 474V339.5C305.625 332.873 300.252 327.5 293.625 327.5H217.375C210.748 327.5 205.375 332.873 205.375 339.5V474C205.375 480.627 200.002 486 193.375 486H155.25H67C60.3726 486 55 480.627 55 474V167.467C55 163.43 57.0297 159.664 60.4014 157.444L248.901 33.3442C252.906 30.7081 258.094 30.7081 262.099 33.3442L450.599 157.444C453.97 159.664 456 163.43 456 167.467Z" stroke="white" stroke-width="20"/>
</svg>
