<svg width="512" height="512" viewBox="0 0 512 512" fill="none" xmlns="http://www.w3.org/2000/svg">
<path d="M324.5 331C324.5 325.477 320.023 321 314.5 321C308.977 321 304.5 325.477 304.5 331H324.5ZM304.5 173C304.5 178.523 308.977 183 314.5 183C320.023 183 324.5 178.523 324.5 173H304.5ZM206.25 244.25C200.727 244.25 196.25 248.727 196.25 254.25C196.25 259.773 200.727 264.25 206.25 264.25V244.25ZM444.071 261.321C447.976 257.416 447.976 251.084 444.071 247.179L380.431 183.539C376.526 179.634 370.195 179.634 366.289 183.539C362.384 187.445 362.384 193.776 366.289 197.681L422.858 254.25L366.289 310.819C362.384 314.724 362.384 321.055 366.289 324.961C370.195 328.866 376.526 328.866 380.431 324.961L444.071 261.321ZM88 44V464.5H108V44H88ZM110 486.5H302.5V466.5H110V486.5ZM324.5 464.5V331H304.5V464.5H324.5ZM110 42H302.5V22H110V42ZM304.5 44V173H324.5V44H304.5ZM206.25 264.25H437V244.25H206.25V264.25ZM302.5 42C303.605 42 304.5 42.8954 304.5 44H324.5C324.5 31.8497 314.65 22 302.5 22V42ZM302.5 486.5C314.65 486.5 324.5 476.65 324.5 464.5H304.5C304.5 465.605 303.605 466.5 302.5 466.5V486.5ZM88 464.5C88 476.65 97.8497 486.5 110 486.5V466.5C108.895 466.5 108 465.605 108 464.5H88ZM108 44C108 42.8954 108.895 42 110 42V22C97.8497 22 88 31.8497 88 44H108Z" fill="#FFFFFF"/>
</svg>
