<svg width="512" height="512" viewBox="0 0 512 512" fill="none" xmlns="http://www.w3.org/2000/svg">
<path d="M54 346.545H178.403M54 346.545V461C54 466.523 58.4771 471 64 471H178.403M54 346.545L91.6631 324.382C93.2003 323.477 94.9514 323 96.7349 323H209M178.403 471V346.545M178.403 471L205.953 444.348C207.9 442.464 209 439.87 209 437.161V323M178.403 346.545L209 323" stroke="#4787ff" stroke-width="20"/>
<circle cx="366" cy="288" r="84.5" stroke="#4787ff" stroke-width="15"/>
<path d="M286 291C313.433 310.62 383.839 338.089 446 291" stroke="#4787ff" stroke-width="20" stroke-linecap="round" stroke-linejoin="round"/>
<path d="M228.5 213H111.041C103.406 213 98.5869 204.789 102.311 198.123L175 68M228.5 213L246.892 198.575C250.929 195.409 251.915 189.701 249.174 185.364L175 68M228.5 213L175 68" stroke="#4787ff" stroke-width="20" stroke-linecap="round" stroke-linejoin="round"/>
</svg>
