<svg width="512" height="512" viewBox="0 0 512 512" fill="none" xmlns="http://www.w3.org/2000/svg">
<path d="M36 145.75V48C36 41.3726 41.3726 36 48 36H145.75V17.5L28.1387 16.1403C21.4575 16.0631 16 21.4579 16 28.1395V145.75H36Z" fill="white"/>
<path fill-rule="evenodd" clip-rule="evenodd" d="M463 36C469.627 36 475 41.3726 475 48V145.75H495V28C495 21.3726 489.627 16 483 16H365.25V36H463ZM475 463V365.25H495V483C495 489.627 489.627 495 483 495H365.25V475H463C469.627 475 475 469.627 475 463ZM48 475H145.75V495H28C21.3726 495 16 489.627 16 483V365.25H36V463C36 469.627 41.3726 475 48 475Z" fill="white"/>
<path fill-rule="evenodd" clip-rule="evenodd" d="M76.0955 73.9055V226.095H227.905V73.9055H76.0955ZM68.4573 55C62.1296 55 57 60.0786 57 66.3433V233.657C57 239.921 62.1296 245 68.4573 245H235.543C241.87 245 247 239.921 247 233.657V66.3433C247 60.0786 241.87 55 235.543 55H68.4573Z" fill="white"/>
<mask id="mask0_25_738" style="mask-type:alpha" maskUnits="userSpaceOnUse" x="265" y="55" width="190" height="190">
<path d="M265.5 67C265.5 60.6487 270.649 55.5 277 55.5H443C449.351 55.5 454.5 60.6487 454.5 67V233C454.5 239.351 449.351 244.5 443 244.5H277C270.649 244.5 265.5 239.351 265.5 233V67Z" fill="black" stroke="black"/>
</mask>
<g mask="url(#mask0_25_738)">
<path d="M455.25 206C455.25 199.373 449.877 194 443.25 194H418C411.373 194 406 199.373 406 206V233C406 239.627 411.373 245 418 245H443.25C449.877 245 455.25 239.627 455.25 233V206Z" fill="white"/>
<path d="M324.25 83C324.25 76.3726 318.877 71 312.25 71H287C280.373 71 275 76.3726 275 83V110C275 116.627 280.373 122 287 122H312.25C318.877 122 324.25 116.627 324.25 110V83Z" fill="white"/>
<path d="M324.25 165C324.25 158.373 318.877 153 312.25 153H287C280.373 153 275 158.373 275 165V192C275 198.627 280.373 204 287 204H312.25C318.877 204 324.25 198.627 324.25 192V165Z" fill="white"/>
<path d="M411.25 84C411.25 77.3726 405.877 72 399.25 72H374C367.373 72 362 77.3726 362 84V111C362 117.627 367.373 123 374 123H399.25C405.877 123 411.25 117.627 411.25 111V84Z" fill="white"/>
<path d="M367.25 125C367.25 118.373 361.877 113 355.25 113H330C323.373 113 318 118.373 318 125V152C318 158.627 323.373 164 330 164H355.25C361.877 164 367.25 158.627 367.25 152V125Z" fill="white"/>
<path d="M367.25 206C367.25 199.373 361.877 194 355.25 194H330C323.373 194 318 199.373 318 206V233C318 239.627 323.373 245 330 245H355.25C361.877 245 367.25 239.627 367.25 233V206Z" fill="white"/>
<path d="M455.25 125C455.25 118.373 449.877 113 443.25 113H418C411.373 113 406 118.373 406 125V152C406 158.627 411.373 164 418 164H443.25C449.877 164 455.25 158.627 455.25 152V125Z" fill="white"/>
<path d="M411.25 165C411.25 158.373 405.877 153 399.25 153H374C367.373 153 362 158.373 362 165V192C362 198.627 367.373 204 374 204H399.25C405.877 204 411.25 198.627 411.25 192V165Z" fill="white"/>
</g>
<path fill-rule="evenodd" clip-rule="evenodd" d="M284.095 285.905V438.095H435.905V285.905H284.095ZM276.457 267C270.13 267 265 272.079 265 278.343V445.657C265 451.921 270.13 457 276.457 457H443.543C449.87 457 455 451.921 455 445.657V278.343C455 272.079 449.87 267 443.543 267H276.457Z" fill="white"/>
<path fill-rule="evenodd" clip-rule="evenodd" d="M76.0955 285.905V438.095H227.905V285.905H76.0955ZM68.4573 267C62.1296 267 57 272.079 57 278.343V445.657C57 451.921 62.1296 457 68.4573 457H235.543C241.87 457 247 451.921 247 445.657V278.343C247 272.079 241.87 267 235.543 267H68.4573Z" fill="white"/>
</svg>
