<svg width="512" height="512" viewBox="0 0 512 512" fill="none" xmlns="http://www.w3.org/2000/svg">
<path d="M201 54C201 47.3726 206.373 42 213 42H299C305.627 42 311 47.3726 311 54V480C311 486.627 305.627 492 299 492H213C206.373 492 201 486.627 201 480V54Z" fill="white"/>
<path d="M62 155.862C62 149.235 67.3726 143.862 74 143.862H160C166.627 143.862 172 149.235 172 155.862V480C172 486.627 166.627 492 160 492H74C67.3726 492 62 486.627 62 480V155.862Z" fill="white"/>
<path d="M340 265.461C340 258.834 345.373 253.461 352 253.461H438C444.627 253.461 450 258.834 450 265.461V480C450 486.627 444.627 492 438 492H352C345.373 492 340 486.627 340 480V265.461Z" fill="white"/>
</svg>
