<svg width="512" height="512" viewBox="0 0 512 512" fill="none" xmlns="http://www.w3.org/2000/svg">
<path d="M116 86H396C398.761 86 401 88.2386 401 91V464C401 466.761 398.761 469 396 469H116C113.239 469 111 466.761 111 464V91C111 88.2386 113.239 86 116 86Z" stroke="#FF4D4D" stroke-width="30"/>
<path d="M64 70C64 64.4772 68.4772 60 74 60H438C443.523 60 448 64.4772 448 70V80C448 85.5228 443.523 90 438 90H74C68.4772 90 64 85.5228 64 80V70Z" fill="#FF4D4D"/>
<path d="M189 146C189 140.477 193.477 136 199 136H209C214.523 136 219 140.477 219 146V410C219 415.523 214.523 420 209 420H199C193.477 420 189 415.523 189 410V146Z" fill="#FF4D4D"/>
<path d="M293 146C293 140.477 297.477 136 303 136H313C318.523 136 323 140.477 323 146V410C323 415.523 318.523 420 313 420H303C297.477 420 293 415.523 293 410V146Z" fill="#FF4D4D"/>
<path d="M189 35C189 32.2386 191.239 30 194 30H318C320.761 30 323 32.2386 323 35V55C323 57.7614 320.761 60 318 60H194C191.239 60 189 57.7614 189 55V35Z" fill="#FF4D4D"/>
</svg>
