<svg width="512" height="512" viewBox="0 0 512 512" fill="none" xmlns="http://www.w3.org/2000/svg">
<path d="M268.375 201.818L266.557 335.636H245.466L243.648 201.818H268.375ZM256.011 389.455C251.527 389.455 247.678 387.848 244.466 384.636C241.254 381.424 239.648 377.576 239.648 373.091C239.648 368.606 241.254 364.758 244.466 361.545C247.678 358.333 251.527 356.727 256.011 356.727C260.496 356.727 264.345 358.333 267.557 361.545C270.769 364.758 272.375 368.606 272.375 373.091C272.375 376.061 271.617 378.788 270.102 381.273C268.648 383.758 266.678 385.758 264.193 387.273C261.769 388.727 259.042 389.455 256.011 389.455Z" fill="#FF3F3F"/>
<path d="M246.018 88.3786L79.3382 426.181C76.8788 431.166 80.5059 437 86.064 437H425.733C431.34 437 434.964 431.072 432.409 426.081L259.42 88.2787C256.61 82.7911 248.746 82.8497 246.018 88.3786Z" stroke="#FF3F3F" stroke-width="30"/>
</svg>
